<?xml version="1.0" encoding="UTF-8" standalone="no"?>
<!DOCTYPE svg PUBLIC "-//W3C//DTD SVG 1.1//EN"
 "http://www.w3.org/Graphics/SVG/1.1/DTD/svg11.dtd">
<!-- Generated by graphviz version 2.40.1 (20161225.0304)
 -->
<!-- Title: dependencies Pages: 1 -->
<svg width="504pt" height="284pt"
 viewBox="0.00 0.00 504.00 284.00" xmlns="http://www.w3.org/2000/svg" xmlns:xlink="http://www.w3.org/1999/xlink">
<g id="graph0" class="graph" transform="scale(1 1) rotate(0) translate(4 280)">
<title>dependencies</title>
<polygon fill="#ffffff" stroke="transparent" points="-4,4 -4,-280 500,-280 500,4 -4,4"/>
<text text-anchor="start" x="227.0091" y="-42.4" font-family="sans-serif" font-weight="bold" font-size="14.00" fill="#000000">Legend</text>
<polygon fill="#ffffb3" stroke="transparent" points="14,-10 14,-30 34,-30 34,-10 14,-10"/>
<text text-anchor="start" x="37.629" y="-15.4" font-family="sans-serif" font-size="14.00" fill="#000000"> &#160;Declarations</text>
<polygon fill="#8dd3c7" stroke="transparent" points="127,-10 127,-30 147,-30 147,-10 127,-10"/>
<text text-anchor="start" x="150.7251" y="-15.4" font-family="sans-serif" font-size="14.00" fill="#000000"> &#160;Module</text>
<polygon fill="#80b1d3" stroke="transparent" points="213,-10 213,-30 233,-30 233,-10 213,-10"/>
<text text-anchor="start" x="236.7812" y="-15.4" font-family="sans-serif" font-size="14.00" fill="#000000"> &#160;Bootstrap</text>
<polygon fill="#fdb462" stroke="transparent" points="310,-10 310,-30 330,-30 330,-10 310,-10"/>
<text text-anchor="start" x="333.6732" y="-15.4" font-family="sans-serif" font-size="14.00" fill="#000000"> &#160;Providers</text>
<polygon fill="#fb8072" stroke="transparent" points="406,-10 406,-30 426,-30 426,-10 406,-10"/>
<text text-anchor="start" x="429.7258" y="-15.4" font-family="sans-serif" font-size="14.00" fill="#000000"> &#160;Exports</text>
<g id="clust1" class="cluster">
<title>cluster_AppModule</title>
<polygon fill="none" stroke="#000000" stroke-dasharray="1,5" points="39,-70 39,-268 457,-268 457,-70 39,-70"/>
</g>
<g id="clust2" class="cluster">
<title>cluster_AppModule_declarations</title>
<polygon fill="none" stroke="#000000" points="175,-78 175,-130 449,-130 449,-78 175,-78"/>
</g>
<g id="clust5" class="cluster">
<title>cluster_AppModule_imports</title>
<polygon fill="none" stroke="#000000" points="47,-78 47,-130 167,-130 167,-78 47,-78"/>
</g>
<g id="clust7" class="cluster">
<title>cluster_AppModule_bootstrap</title>
<polygon fill="none" stroke="#000000" points="188,-208 188,-260 312,-260 312,-208 188,-208"/>
</g>
<!-- AppComponent -->
<g id="node1" class="node">
<title>AppComponent</title>
<polygon fill="#ffffb3" stroke="#000000" points="440.9399,-122 335.0601,-122 335.0601,-86 440.9399,-86 440.9399,-122"/>
<text text-anchor="middle" x="388" y="-99.8" font-family="Times,serif" font-size="14.00" fill="#000000">AppComponent</text>
</g>
<!-- AppModule -->
<g id="node3" class="node">
<title>AppModule</title>
<polygon fill="#8dd3c7" stroke="#000000" points="291.6571,-187 288.6571,-191 267.6571,-191 264.6571,-187 208.3429,-187 208.3429,-151 291.6571,-151 291.6571,-187"/>
<text text-anchor="middle" x="250" y="-164.8" font-family="Times,serif" font-size="14.00" fill="#000000">AppModule</text>
</g>
<!-- AppComponent&#45;&gt;AppModule -->
<g id="edge1" class="edge">
<title>AppComponent&#45;&gt;AppModule</title>
<path fill="none" stroke="#000000" d="M388,-122.1061C388,-141.3391 388,-169 388,-169 388,-169 301.779,-169 301.779,-169"/>
<polygon fill="#000000" stroke="#000000" points="301.7791,-165.5001 291.779,-169 301.779,-172.5001 301.7791,-165.5001"/>
</g>
<!-- WelcomeComponent -->
<g id="node2" class="node">
<title>WelcomeComponent</title>
<polygon fill="#ffffb3" stroke="#000000" points="317.472,-122 182.528,-122 182.528,-86 317.472,-86 317.472,-122"/>
<text text-anchor="middle" x="250" y="-99.8" font-family="Times,serif" font-size="14.00" fill="#000000">WelcomeComponent</text>
</g>
<!-- WelcomeComponent&#45;&gt;AppModule -->
<g id="edge2" class="edge">
<title>WelcomeComponent&#45;&gt;AppModule</title>
<path fill="none" stroke="#000000" d="M250,-122.1061C250,-122.1061 250,-140.991 250,-140.991"/>
<polygon fill="#000000" stroke="#000000" points="246.5001,-140.9909 250,-150.991 253.5001,-140.991 246.5001,-140.9909"/>
</g>
<!-- AppComponent  -->
<g id="node5" class="node">
<title>AppComponent </title>
<polygon fill="#80b1d3" stroke="#000000" points="304.439,-252 195.561,-252 195.561,-216 304.439,-216 304.439,-252"/>
<text text-anchor="middle" x="250" y="-229.8" font-family="Times,serif" font-size="14.00" fill="#000000">AppComponent </text>
</g>
<!-- AppModule&#45;&gt;AppComponent  -->
<g id="edge4" class="edge">
<title>AppModule&#45;&gt;AppComponent </title>
<path fill="none" stroke="#000000" stroke-dasharray="1,5" d="M250,-187.1061C250,-187.1061 250,-205.991 250,-205.991"/>
<polygon fill="#000000" stroke="#000000" points="246.5001,-205.9909 250,-215.991 253.5001,-205.991 246.5001,-205.9909"/>
</g>
<!-- ProductModule -->
<g id="node4" class="node">
<title>ProductModule</title>
<polygon fill="#8dd3c7" stroke="#000000" points="158.5982,-122 155.5982,-126 134.5982,-126 131.5982,-122 55.4018,-122 55.4018,-86 158.5982,-86 158.5982,-122"/>
<text text-anchor="middle" x="107" y="-99.8" font-family="Times,serif" font-size="14.00" fill="#000000">ProductModule</text>
</g>
<!-- ProductModule&#45;&gt;AppModule -->
<g id="edge3" class="edge">
<title>ProductModule&#45;&gt;AppModule</title>
<path fill="none" stroke="#000000" d="M107,-122.1061C107,-141.3391 107,-169 107,-169 107,-169 198.2541,-169 198.2541,-169"/>
<polygon fill="#000000" stroke="#000000" points="198.2541,-172.5001 208.2541,-169 198.254,-165.5001 198.2541,-172.5001"/>
</g>
</g>
</svg>
