<?xml version="1.0" encoding="UTF-8" standalone="no"?>
<!DOCTYPE svg PUBLIC "-//W3C//DTD SVG 1.1//EN"
 "http://www.w3.org/Graphics/SVG/1.1/DTD/svg11.dtd">
<!-- Generated by graphviz version 2.40.1 (20161225.0304)
 -->
<!-- Title: dependencies Pages: 1 -->
<svg width="544pt" height="211pt"
 viewBox="0.00 0.00 544.00 211.00" xmlns="http://www.w3.org/2000/svg" xmlns:xlink="http://www.w3.org/1999/xlink">
<g id="graph0" class="graph" transform="scale(1 1) rotate(0) translate(4 207)">
<title>dependencies</title>
<polygon fill="#ffffff" stroke="transparent" points="-4,4 -4,-207 540,-207 540,4 -4,4"/>
<text text-anchor="start" x="247.0091" y="-42.4" font-family="sans-serif" font-weight="bold" font-size="14.00" fill="#000000">Legend</text>
<polygon fill="#ffffb3" stroke="transparent" points="34,-10 34,-30 54,-30 54,-10 34,-10"/>
<text text-anchor="start" x="57.629" y="-15.4" font-family="sans-serif" font-size="14.00" fill="#000000"> &#160;Declarations</text>
<polygon fill="#8dd3c7" stroke="transparent" points="147,-10 147,-30 167,-30 167,-10 147,-10"/>
<text text-anchor="start" x="170.7251" y="-15.4" font-family="sans-serif" font-size="14.00" fill="#000000"> &#160;Module</text>
<polygon fill="#80b1d3" stroke="transparent" points="233,-10 233,-30 253,-30 253,-10 233,-10"/>
<text text-anchor="start" x="256.7812" y="-15.4" font-family="sans-serif" font-size="14.00" fill="#000000"> &#160;Bootstrap</text>
<polygon fill="#fdb462" stroke="transparent" points="330,-10 330,-30 350,-30 350,-10 330,-10"/>
<text text-anchor="start" x="353.6732" y="-15.4" font-family="sans-serif" font-size="14.00" fill="#000000"> &#160;Providers</text>
<polygon fill="#fb8072" stroke="transparent" points="426,-10 426,-30 446,-30 446,-10 426,-10"/>
<text text-anchor="start" x="449.7258" y="-15.4" font-family="sans-serif" font-size="14.00" fill="#000000"> &#160;Exports</text>
<g id="clust1" class="cluster">
<title>cluster_ProductModule</title>
<polygon fill="none" stroke="#000000" stroke-dasharray="1,5" points="8,-70 8,-195 528,-195 528,-70 8,-70"/>
</g>
<g id="clust2" class="cluster">
<title>cluster_ProductModule_declarations</title>
<polygon fill="none" stroke="#000000" points="180,-78 180,-130 520,-130 520,-78 180,-78"/>
</g>
<g id="clust8" class="cluster">
<title>cluster_ProductModule_providers</title>
<polygon fill="none" stroke="#000000" points="16,-78 16,-130 172,-130 172,-78 16,-78"/>
</g>
<!-- ProductListComponent -->
<g id="node1" class="node">
<title>ProductListComponent</title>
<polygon fill="#ffffb3" stroke="#000000" points="512.1596,-122 365.8404,-122 365.8404,-86 512.1596,-86 512.1596,-122"/>
<text text-anchor="middle" x="439" y="-99.8" font-family="Times,serif" font-size="14.00" fill="#000000">ProductListComponent</text>
</g>
<!-- ProductModule -->
<g id="node3" class="node">
<title>ProductModule</title>
<polygon fill="#8dd3c7" stroke="#000000" points="319.5982,-187 316.5982,-191 295.5982,-191 292.5982,-187 216.4018,-187 216.4018,-151 319.5982,-151 319.5982,-187"/>
<text text-anchor="middle" x="268" y="-164.8" font-family="Times,serif" font-size="14.00" fill="#000000">ProductModule</text>
</g>
<!-- ProductListComponent&#45;&gt;ProductModule -->
<g id="edge1" class="edge">
<title>ProductListComponent&#45;&gt;ProductModule</title>
<path fill="none" stroke="#000000" d="M439,-122.1061C439,-141.3391 439,-169 439,-169 439,-169 329.7697,-169 329.7697,-169"/>
<polygon fill="#000000" stroke="#000000" points="329.7697,-165.5001 319.7697,-169 329.7697,-172.5001 329.7697,-165.5001"/>
</g>
<!-- ProductDetailComponent -->
<g id="node2" class="node">
<title>ProductDetailComponent</title>
<polygon fill="#ffffb3" stroke="#000000" points="347.5884,-122 188.4116,-122 188.4116,-86 347.5884,-86 347.5884,-122"/>
<text text-anchor="middle" x="268" y="-99.8" font-family="Times,serif" font-size="14.00" fill="#000000">ProductDetailComponent</text>
</g>
<!-- ProductDetailComponent&#45;&gt;ProductModule -->
<g id="edge2" class="edge">
<title>ProductDetailComponent&#45;&gt;ProductModule</title>
<path fill="none" stroke="#000000" d="M268,-122.1061C268,-122.1061 268,-140.991 268,-140.991"/>
<polygon fill="#000000" stroke="#000000" points="264.5001,-140.9909 268,-150.991 271.5001,-140.991 264.5001,-140.9909"/>
</g>
<!-- ProductService -->
<g id="node4" class="node">
<title>ProductService</title>
<ellipse fill="#fdb462" stroke="#000000" cx="94" cy="-104" rx="70.0616" ry="18"/>
<text text-anchor="middle" x="94" y="-99.8" font-family="Times,serif" font-size="14.00" fill="#000000">ProductService</text>
</g>
<!-- ProductService&#45;&gt;ProductModule -->
<g id="edge3" class="edge">
<title>ProductService&#45;&gt;ProductModule</title>
<path fill="none" stroke="#000000" d="M94,-122.1061C94,-141.3391 94,-169 94,-169 94,-169 206.2654,-169 206.2654,-169"/>
<polygon fill="#000000" stroke="#000000" points="206.2654,-172.5001 216.2654,-169 206.2653,-165.5001 206.2654,-172.5001"/>
</g>
</g>
</svg>
