<?xml version="1.0" encoding="UTF-8" standalone="no"?>
<!DOCTYPE svg PUBLIC "-//W3C//DTD SVG 1.1//EN"
 "http://www.w3.org/Graphics/SVG/1.1/DTD/svg11.dtd">
<!-- Generated by graphviz version 2.40.1 (20161225.0304)
 -->
<!-- Title: dependencies Pages: 1 -->
<svg width="634pt" height="360pt"
 viewBox="0.00 0.00 634.00 360.00" xmlns="http://www.w3.org/2000/svg" xmlns:xlink="http://www.w3.org/1999/xlink">
<g id="graph0" class="graph" transform="scale(1 1) rotate(0) translate(4 356)">
<title>dependencies</title>
<polygon fill="#ffffff" stroke="transparent" points="-4,4 -4,-356 630,-356 630,4 -4,4"/>
<text text-anchor="start" x="292.0091" y="-42.4" font-family="sans-serif" font-weight="bold" font-size="14.00" fill="#000000">Legend</text>
<polygon fill="#ffffb3" stroke="transparent" points="79,-10 79,-30 99,-30 99,-10 79,-10"/>
<text text-anchor="start" x="102.629" y="-15.4" font-family="sans-serif" font-size="14.00" fill="#000000"> &#160;Declarations</text>
<polygon fill="#8dd3c7" stroke="transparent" points="192,-10 192,-30 212,-30 212,-10 192,-10"/>
<text text-anchor="start" x="215.7251" y="-15.4" font-family="sans-serif" font-size="14.00" fill="#000000"> &#160;Module</text>
<polygon fill="#80b1d3" stroke="transparent" points="278,-10 278,-30 298,-30 298,-10 278,-10"/>
<text text-anchor="start" x="301.7812" y="-15.4" font-family="sans-serif" font-size="14.00" fill="#000000"> &#160;Bootstrap</text>
<polygon fill="#fdb462" stroke="transparent" points="375,-10 375,-30 395,-30 395,-10 375,-10"/>
<text text-anchor="start" x="398.6732" y="-15.4" font-family="sans-serif" font-size="14.00" fill="#000000"> &#160;Providers</text>
<polygon fill="#fb8072" stroke="transparent" points="471,-10 471,-30 491,-30 491,-10 471,-10"/>
<text text-anchor="start" x="494.7258" y="-15.4" font-family="sans-serif" font-size="14.00" fill="#000000"> &#160;Exports</text>
<g id="clust1" class="cluster">
<title>cluster_AppModule</title>
<polygon fill="none" stroke="#000000" stroke-dasharray="1,5" points="200,-146 200,-344 618,-344 618,-146 200,-146"/>
</g>
<g id="clust2" class="cluster">
<title>cluster_AppModule_declarations</title>
<polygon fill="none" stroke="#000000" points="336,-154 336,-206 610,-206 610,-154 336,-154"/>
</g>
<g id="clust5" class="cluster">
<title>cluster_AppModule_imports</title>
<polygon fill="none" stroke="#000000" points="208,-154 208,-206 328,-206 328,-154 208,-154"/>
</g>
<g id="clust7" class="cluster">
<title>cluster_AppModule_bootstrap</title>
<polygon fill="none" stroke="#000000" points="349,-284 349,-336 473,-336 473,-284 349,-284"/>
</g>
<g id="clust9" class="cluster">
<title>cluster_ProductModule</title>
<polygon fill="none" stroke="#000000" stroke-dasharray="1,5" points="8,-70 8,-138 528,-138 528,-70 8,-70"/>
</g>
<g id="clust10" class="cluster">
<title>cluster_ProductModule_declarations</title>
<polygon fill="none" stroke="#000000" points="180,-78 180,-130 520,-130 520,-78 180,-78"/>
</g>
<g id="clust16" class="cluster">
<title>cluster_ProductModule_providers</title>
<polygon fill="none" stroke="#000000" points="16,-78 16,-130 172,-130 172,-78 16,-78"/>
</g>
<!-- AppComponent -->
<g id="node1" class="node">
<title>AppComponent</title>
<polygon fill="#ffffb3" stroke="#000000" points="601.9399,-198 496.0601,-198 496.0601,-162 601.9399,-162 601.9399,-198"/>
<text text-anchor="middle" x="549" y="-175.8" font-family="Times,serif" font-size="14.00" fill="#000000">AppComponent</text>
</g>
<!-- AppModule -->
<g id="node3" class="node">
<title>AppModule</title>
<polygon fill="#8dd3c7" stroke="#000000" points="452.6571,-263 449.6571,-267 428.6571,-267 425.6571,-263 369.3429,-263 369.3429,-227 452.6571,-227 452.6571,-263"/>
<text text-anchor="middle" x="411" y="-240.8" font-family="Times,serif" font-size="14.00" fill="#000000">AppModule</text>
</g>
<!-- AppComponent&#45;&gt;AppModule -->
<g id="edge1" class="edge">
<title>AppComponent&#45;&gt;AppModule</title>
<path fill="none" stroke="#000000" d="M549,-198.1061C549,-217.3391 549,-245 549,-245 549,-245 462.779,-245 462.779,-245"/>
<polygon fill="#000000" stroke="#000000" points="462.7791,-241.5001 452.779,-245 462.779,-248.5001 462.7791,-241.5001"/>
</g>
<!-- WelcomeComponent -->
<g id="node2" class="node">
<title>WelcomeComponent</title>
<polygon fill="#ffffb3" stroke="#000000" points="478.472,-198 343.528,-198 343.528,-162 478.472,-162 478.472,-198"/>
<text text-anchor="middle" x="411" y="-175.8" font-family="Times,serif" font-size="14.00" fill="#000000">WelcomeComponent</text>
</g>
<!-- WelcomeComponent&#45;&gt;AppModule -->
<g id="edge2" class="edge">
<title>WelcomeComponent&#45;&gt;AppModule</title>
<path fill="none" stroke="#000000" d="M411,-198.1061C411,-198.1061 411,-216.991 411,-216.991"/>
<polygon fill="#000000" stroke="#000000" points="407.5001,-216.9909 411,-226.991 414.5001,-216.991 407.5001,-216.9909"/>
</g>
<!-- AppComponent  -->
<g id="node5" class="node">
<title>AppComponent </title>
<polygon fill="#80b1d3" stroke="#000000" points="465.439,-328 356.561,-328 356.561,-292 465.439,-292 465.439,-328"/>
<text text-anchor="middle" x="411" y="-305.8" font-family="Times,serif" font-size="14.00" fill="#000000">AppComponent </text>
</g>
<!-- AppModule&#45;&gt;AppComponent  -->
<g id="edge4" class="edge">
<title>AppModule&#45;&gt;AppComponent </title>
<path fill="none" stroke="#000000" stroke-dasharray="1,5" d="M411,-263.1061C411,-263.1061 411,-281.991 411,-281.991"/>
<polygon fill="#000000" stroke="#000000" points="407.5001,-281.9909 411,-291.991 414.5001,-281.991 407.5001,-281.9909"/>
</g>
<!-- ProductModule -->
<g id="node4" class="node">
<title>ProductModule</title>
<polygon fill="#8dd3c7" stroke="#000000" points="319.5982,-198 316.5982,-202 295.5982,-202 292.5982,-198 216.4018,-198 216.4018,-162 319.5982,-162 319.5982,-198"/>
<text text-anchor="middle" x="268" y="-175.8" font-family="Times,serif" font-size="14.00" fill="#000000">ProductModule</text>
</g>
<!-- ProductModule&#45;&gt;AppModule -->
<g id="edge3" class="edge">
<title>ProductModule&#45;&gt;AppModule</title>
<path fill="none" stroke="#000000" d="M268,-198.1061C268,-217.3391 268,-245 268,-245 268,-245 359.2541,-245 359.2541,-245"/>
<polygon fill="#000000" stroke="#000000" points="359.2541,-248.5001 369.2541,-245 359.254,-241.5001 359.2541,-248.5001"/>
</g>
<!-- ProductListComponent -->
<g id="node6" class="node">
<title>ProductListComponent</title>
<polygon fill="#ffffb3" stroke="#000000" points="512.1596,-122 365.8404,-122 365.8404,-86 512.1596,-86 512.1596,-122"/>
<text text-anchor="middle" x="439" y="-99.8" font-family="Times,serif" font-size="14.00" fill="#000000">ProductListComponent</text>
</g>
<!-- ProductListComponent&#45;&gt;ProductModule -->
<g id="edge5" class="edge">
<title>ProductListComponent&#45;&gt;ProductModule</title>
<path fill="none" stroke="#000000" d="M422.0782,-122.1097C422.0782,-131.897 422.0782,-142 422.0782,-142 422.0782,-142 285.183,-142 285.183,-142 285.183,-142 285.183,-151.8903 285.183,-151.8903"/>
<polygon fill="#000000" stroke="#000000" points="281.6831,-151.8903 285.183,-161.8903 288.6831,-151.8904 281.6831,-151.8903"/>
</g>
<!-- ProductDetailComponent -->
<g id="node7" class="node">
<title>ProductDetailComponent</title>
<polygon fill="#ffffb3" stroke="#000000" points="347.5884,-122 188.4116,-122 188.4116,-86 347.5884,-86 347.5884,-122"/>
<text text-anchor="middle" x="268" y="-99.8" font-family="Times,serif" font-size="14.00" fill="#000000">ProductDetailComponent</text>
</g>
<!-- ProductDetailComponent&#45;&gt;ProductModule -->
<g id="edge6" class="edge">
<title>ProductDetailComponent&#45;&gt;ProductModule</title>
<path fill="none" stroke="#000000" d="M250.817,-122.0109C250.817,-122.0109 250.817,-151.855 250.817,-151.855"/>
<polygon fill="#000000" stroke="#000000" points="247.3171,-151.8549 250.817,-161.855 254.3171,-151.855 247.3171,-151.8549"/>
</g>
<!-- ProductService -->
<g id="node8" class="node">
<title>ProductService</title>
<ellipse fill="#fdb462" stroke="#000000" cx="94" cy="-104" rx="70.0616" ry="18"/>
<text text-anchor="middle" x="94" y="-99.8" font-family="Times,serif" font-size="14.00" fill="#000000">ProductService</text>
</g>
<!-- ProductService&#45;&gt;ProductModule -->
<g id="edge7" class="edge">
<title>ProductService&#45;&gt;ProductModule</title>
<path fill="none" stroke="#000000" d="M94,-122.0109C94,-144.4852 94,-180 94,-180 94,-180 206.2654,-180 206.2654,-180"/>
<polygon fill="#000000" stroke="#000000" points="206.2654,-183.5001 216.2654,-180 206.2653,-176.5001 206.2654,-183.5001"/>
</g>
</g>
</svg>
